<svg xmlns="http://www.w3.org/2000/svg" fill="none" viewBox="0 0 22 16">
  <g clip-path="url(#a)">
    <g clip-path="url(#b)">
      <rect width="22" height="16" fill="#1A47B8" rx="2"/>
      <path fill="#1A47B8" d="M19.9048 0H2.09524C.93807 0 0 .955126 0 2.13333V13.8667C0 15.0449.93807 16 2.09524 16H19.9048C21.0619 16 22 15.0449 22 13.8667V2.13333C22 .955126 21.0619 0 19.9048 0Z"/>
      <path fill="#FF0" fill-rule="evenodd" d="m11 2 .0085.96295.4254-.86392-.4102.87126.7581-.59378-.7476.607.9407-.20603L11.038 3l.9369.22252-.9407-.20603.7476.607-.7581-.59378.4102.87126-.4254-.86392L11 4l-.0085-.96295-.4254.86392.4102-.87126-.7581.59378.7476-.607-.9407.20603L10.962 3l-.9369-.22252.9407.20603-.7476-.607.7581.59378-.4102-.87126.4254.86392L11 2ZM6.00845 7.96295 6 7l-.00846.96295-.42543-.86392.4102.87126-.75814-.59378.74759.607-.94069-.20603L5.962 8l-.93693.22252.94069-.20603-.74759.607.75814-.59378-.4102.87126.42543-.86392L6 9l.00845-.96295.42543.86392-.41019-.87126.75814.59378-.7476-.607.9407.20603L6.038 8l.93693-.22252-.9407.20603.7476-.607-.75814.59378.41019-.87126-.42543.86392Zm10.00005 0L16 7l-.0085.96295-.4254-.86392.4102.87126-.7581-.59378.7476.607-.9407-.20603L15.962 8l-.9369.22252.9407-.20603-.7476.607.7581-.59378-.4102.87126.4254-.86392L16 9l.0085-.96295.4254.86392-.4102-.87126.7581.59378-.7476-.607.9407.20603L16.038 8l.9369-.22252-.9407.20603.7476-.607-.7581.59378.4102-.87126-.4254.86392Zm-5 5.00005L11 12l-.0085.963-.4254-.864.4102.8713-.7581-.5938.7476.607-.9407-.206.9369.2225-.9369.2225.9407-.206-.7476.607.7581-.5938-.4102.8713.4254-.864L11 14l.0085-.963.4254.864-.4102-.8713.7581.5938-.7476-.607.9407.206L11.038 13l.9369-.2225-.9407.206.7476-.607-.7581.5938.4102-.8713-.4254.864ZM7.5 10.5l.00845.963.42543-.864-.41019.8713.75814-.5938-.74759.607.94069-.206L7.538 11.5l.93693.2225-.94069-.206.74759.607-.75814-.5938.41019.8713-.42543-.864L7.5 12.5l-.00846-.963-.42543.864.4102-.8713-.75814.5938.74759-.607-.94069.206L7.462 11.5l-.93693-.2225.94069.206-.74759-.607.75814.5938-.4102-.8713.42543.864L7.5 10.5Zm.00845-6.03705L7.5 3.5l-.00846.96295-.42543-.86392.4102.87126-.75814-.59378.74759.607-.94069-.20603L7.462 4.5l-.93693.22252.94069-.20603-.74759.607.75814-.59378-.4102.87126.42543-.86392L7.5 5.5l.00845-.96295.42543.86392-.41019-.87126.75814.59378-.74759-.607.94069.20603L7.538 4.5l.93693-.22252-.94069.20603.74759-.607-.75814.59378.41019-.87126-.42543.86392ZM14.5 10.5l.0085.963.4254-.864-.4102.8713.7581-.5938-.7476.607.9407-.206-.9369.2225.9369.2225-.9407-.206.7476.607-.7581-.5938.4102.8713-.4254-.864-.0085.963-.0085-.963-.4254.864.4102-.8713-.7581.5938.7476-.607-.9407.206.9369-.2225-.9369-.2225.9407.206-.7476-.607.7581.5938-.4102-.8713.4254.864.0085-.963Zm.0085-6.03705L14.5 3.5l-.0085.96295-.4254-.86392.4102.87126-.7581-.59378.7476.607-.9407-.20603.9369.22252-.9369.22252.9407-.20603-.7476.607.7581-.59378-.4102.87126.4254-.86392L14.5 5.5l.0085-.96295.4254.86392-.4102-.87126.7581.59378-.7476-.607.9407.20603L14.538 4.5l.9369-.22252-.9407.20603.7476-.607-.7581.59378.4102-.87126-.4254.86392Z" clip-rule="evenodd"/>
    </g>
  </g>
  <defs>
    <clipPath id="a">
      <path fill="#fff" d="M0 0h22v16H0z"/>
    </clipPath>
    <clipPath id="b">
      <rect width="22" height="16" fill="#fff" rx="2"/>
    </clipPath>
  </defs>
</svg>