<svg width="30" height="30" viewBox="0 0 30 30" fill="none" xmlns="http://www.w3.org/2000/svg">
<path d="M27.5 20.2375C27.5 24.7875 24.7875 27.5 20.2375 27.5H18.75C18.0625 27.5 17.5 26.9375 17.5 26.25V19.0375C17.5 18.7 17.775 18.4125 18.1125 18.4125L20.3125 18.375C20.4875 18.3625 20.6375 18.2375 20.675 18.0625L21.1125 15.675C21.121 15.6209 21.1177 15.5656 21.1027 15.5129C21.0878 15.4602 21.0616 15.4114 21.0259 15.3698C20.9903 15.3282 20.946 15.2948 20.8962 15.272C20.8464 15.2491 20.7923 15.2374 20.7375 15.2375L18.075 15.275C17.725 15.275 17.45 15 17.4375 14.6625L17.3875 11.6C17.3875 11.4 17.55 11.225 17.7625 11.225L20.7625 11.175C20.975 11.175 21.1375 11.0125 21.1375 10.8L21.0875 7.8C21.0875 7.5875 20.925 7.425 20.7125 7.425L17.3375 7.475C16.8448 7.48248 16.3585 7.58712 15.9063 7.7829C15.4541 7.97869 15.0451 8.26178 14.7025 8.61595C14.3599 8.97012 14.0906 9.38841 13.91 9.84684C13.7294 10.3053 13.6411 10.7949 13.65 11.2875L13.7125 14.725C13.725 15.075 13.45 15.35 13.1 15.3625L11.6 15.3875C11.3875 15.3875 11.225 15.55 11.225 15.7625L11.2625 18.1375C11.2625 18.35 11.425 18.5125 11.6375 18.5125L13.1375 18.4875C13.4875 18.4875 13.7625 18.7625 13.775 19.1L13.8875 26.225C13.9 26.925 13.3375 27.5 12.6375 27.5H9.7625C5.2125 27.5 2.5 24.7875 2.5 20.225V9.7625C2.5 5.2125 5.2125 2.5 9.7625 2.5H20.2375C24.7875 2.5 27.5 5.2125 27.5 9.7625V20.2375Z" fill="#1D4044"/>
</svg>
