<svg width="25" height="25" viewBox="0 0 25 25" fill="none" xmlns="http://www.w3.org/2000/svg">
<path d="M17.738 0.000999928H7.261C2.712 0.000999928 0 2.714 0 7.263V17.726C0 22.289 2.713 25.001 7.262 25.001H17.725C22.275 25.001 24.987 22.289 24.987 17.739V7.262C25 2.712 22.287 0 17.737 0L17.738 0.000999928ZM12.5 17.351C11.2141 17.3497 9.98126 16.8383 9.07199 15.929C8.16273 15.0197 7.65132 13.7869 7.65 12.501C7.65132 11.2151 8.16273 9.98226 9.07199 9.07299C9.98126 8.16373 11.2141 7.65232 12.5 7.651C13.7859 7.65232 15.0187 8.16373 15.928 9.07299C16.8373 9.98226 17.3487 11.2151 17.35 12.501C17.3487 13.7869 16.8373 15.0197 15.928 15.929C15.0187 16.8383 13.7859 17.3497 12.5 17.351ZM19.9 6.101C19.837 6.251 19.75 6.388 19.638 6.513C19.512 6.626 19.375 6.713 19.225 6.776C18.9976 6.87352 18.7461 6.90059 18.5031 6.85371C18.2602 6.80683 18.0368 6.68814 17.862 6.513C17.7519 6.39155 17.6633 6.25222 17.6 6.101C17.537 5.951 17.5 5.788 17.5 5.626C17.5 5.464 17.538 5.301 17.6 5.151C17.6602 4.99789 17.7491 4.8577 17.862 4.738C18.0076 4.59367 18.1865 4.48742 18.3828 4.42865C18.5792 4.36987 18.7871 4.36037 18.988 4.401C19.0706 4.41272 19.1507 4.43806 19.225 4.476C19.3 4.501 19.375 4.539 19.45 4.589C19.513 4.626 19.575 4.689 19.638 4.739C19.75 4.863 19.838 4.989 19.9 5.151C19.963 5.301 20 5.464 20 5.626C20 5.788 19.962 5.951 19.9 6.101Z" fill="#B2F5EA"/>
</svg>
