<svg width="191" height="163" viewBox="0 0 191 163" fill="none" xmlns="http://www.w3.org/2000/svg">
<g clip-path="url(#clip0_11_2354)">
<path d="M50 5C50 2.24 52.79 0 56.24 0H121.76C125.21 0 128 2.24 128 5V65C128 67.76 125.21 70 121.76 70H56.24C52.79 70 50 67.76 50 65V5Z" fill="#38B2AC"/>
<path d="M112 40C112 37.24 114.79 35 118.24 35H183.76C187.21 35 190 37.24 190 40V100C190 102.76 187.21 105 183.76 105H118.24C114.79 105 112 102.76 112 100V40Z" fill="#B2F5EA"/>
<path d="M96.19 88.5H161.82C164.41 88.5 166.51 90.17 166.51 92.22V151.78C166.51 153.84 164.41 155.5 161.82 155.5H96.19C93.6 155.5 91.5 153.83 91.5 151.78V92.22C91.5 90.16 93.6 88.5 96.19 88.5Z" fill="#E6FFFA" stroke="#285E61"/>
<path d="M6.24 59H71.76C75.21 59 78 61.24 78 64V124C78 126.76 75.21 129 71.76 129H6.24C2.79 129 0 126.76 0 124V64C0 61.24 2.79 59 6.24 59Z" fill="#285E61"/>
<path d="M2.44617 113.988C4.19073 115.01 6.42595 116.577 7.77526 117.668L6.97112 118.622C5.71722 117.477 3.3866 115.8 1.69655 114.751L2.44617 113.988ZM8.6748 111.507C8.56576 111.698 8.42947 112.011 8.36132 112.23C7.95244 113.62 7.09379 115.432 5.8944 116.904C4.65413 118.431 2.88231 119.889 0.292728 120.843L-0.674957 119.985C1.86011 119.221 3.7137 117.777 4.94035 116.318C5.98981 115.064 6.84846 113.334 7.16194 112.066H2.11907L2.55521 111.085H6.88935C7.25734 111.085 7.55719 111.044 7.77526 110.962L8.6748 111.507ZM4.0817 109.531C3.85 109.885 3.60467 110.349 3.46837 110.608C2.66424 112.107 1.12412 114.165 -1.05658 115.664L-1.95612 114.969C0.374505 113.511 1.77833 111.466 2.40528 110.212C2.54158 109.981 2.75965 109.49 2.84142 109.136L4.0817 109.531Z" fill="#E6FFFA"/>
<path d="M97.1738 126.158C109.352 122.92 120.051 117.922 127.865 113.065C135.256 108.419 142.295 102.366 147.153 96.4525L151.869 100.887C145.815 107.152 138.424 113.065 130.188 118.204C122.445 122.991 111.252 128.129 99.9191 131.649L97.1738 126.158ZM126.739 115.951L132.792 114.121V146.291C132.792 148.895 132.933 152.415 133.285 153.752H126.316C126.528 152.415 126.739 148.895 126.739 146.291V115.951Z" fill="#285E61"/>
<path d="M154.187 90.2293C154.408 89.4002 154.574 88.2395 154.574 87.1341C154.574 84.5916 154.574 57.5083 154.574 54.0261C154.574 51.9258 154.298 50.3782 154.298 49.936H159.383C159.328 50.3782 159.106 51.9811 159.106 54.0814C159.106 57.5083 159.106 84.2599 159.106 85.9181C164.247 83.5967 171.045 78.5669 175.246 72.3212L177.899 76.1349C173.09 82.6018 165.463 88.2395 159.051 91.4453C158.112 91.8875 157.559 92.3849 157.117 92.6613L154.187 90.2293ZM128.873 90.0082C133.571 86.6919 136.832 81.7727 138.49 76.4113C140.148 71.3263 140.148 60.3271 140.148 54.1367C140.148 52.5338 140.038 51.3178 139.761 50.1571H144.846C144.791 50.7651 144.57 52.4785 144.57 54.0814C144.57 60.2166 144.404 72.1001 142.912 77.6273C141.254 83.5414 137.716 88.9028 133.073 92.7718L128.873 90.0082Z" fill="#38B2AC"/>
</g>
<defs>
<clipPath id="clip0_11_2354">
<rect width="190.87" height="162.53" fill="white"/>
</clipPath>
</defs>
</svg>
